<?xml version="1.0" encoding="utf-8"?><!DOCTYPE svg PUBLIC "-//W3C//DTD SVG 1.1//EN" "http://www.w3.org/Graphics/SVG/1.1/DTD/svg11.dtd"><svg width="128" height="128" viewBox="0 0 128 128" xmlns="http://www.w3.org/2000/svg" xmlns:xlink="http://www.w3.org/1999/xlink"><svg width="32" height="32" viewBox="0 0 32 32" id="air-play" x="32"><path d="M5.333 2.667h21.333q1.656 0 2.828 1.172t1.172 2.827V20q0 1.656-1.172 2.828T26.666 24h-3.333l-2-2.667h5.333q.552 0 .943-.39t.39-.944V6.665q0-.552-.39-.943t-.944-.39H5.333q-.552 0-.943.39T4 6.666V20q0 .55.39.942t.943.39h5.333l-2 2.668H5.333q-1.656 0-2.828-1.172T1.333 20V6.667q0-1.656 1.172-2.828t2.828-1.173zm13.334 24L16 23.115l-2.667 3.552h5.333zM8 29.333l8-10.667 8 10.667H8z"/></svg><svg width="32" height="32" viewBox="0 0 32 32" id="caret-down" x="32" y="64"><path d="M5.724 10.39c.52-.52 1.365-.52 1.886 0L16 18.78l8.39-8.39c.522-.52 1.366-.52 1.886 0s.52 1.365 0 1.886l-9.333 9.333c-.52.52-1.365.52-1.886 0l-9.333-9.334c-.26-.26-.39-.602-.39-.943s.13-.683.39-.943z"/></svg><svg width="32" height="32" viewBox="0 0 32 32" id="microphone-filled" y="32"><path d="M25.333 12c.368 0 .682.13.943.39s.39.576.39.944V16c0 1.334-.24 2.617-.723 3.85s-1.14 2.313-1.97 3.24-1.818 1.7-2.968 2.323-2.373 1.012-3.672 1.172v2.75h4c.368 0 .682.13.943.39s.39.576.39.944-.13.68-.39.942-.575.39-.943.39H10.666c-.368 0-.682-.13-.943-.39s-.39-.575-.39-.943.13-.683.39-.944.575-.39.943-.39h4v-2.75c-1.3-.16-2.523-.55-3.672-1.173s-2.14-1.396-2.97-2.323-1.485-2.007-1.968-3.24-.724-2.516-.724-3.85v-2.666c0-.368.13-.682.39-.943S6.3 12 6.667 12s.682.13.943.39c.26.26.39.576.39.944V16c0 1.452.358 2.79 1.073 4.017s1.686 2.196 2.91 2.91S14.55 24.002 16 24.002s2.79-.357 4.016-1.072 2.196-1.686 2.91-2.91S24 17.452 24 16v-2.666c0-.368.13-.682.39-.943s.576-.39.944-.39zM16 0c1.472 0 2.73.52 3.77 1.563s1.564 2.3 1.564 3.77v10.668c0 1.473-.52 2.73-1.563 3.772s-2.298 1.563-3.77 1.563-2.73-.52-3.77-1.563-1.564-2.3-1.564-3.77V5.333c0-1.472.52-2.73 1.563-3.77S14.527 0 16 0z"/></svg><svg width="32" height="32" viewBox="0 0 32 32" id="plus" x="32" y="32"><path d="M16 2.667q.552 0 .943.39t.39.944V14.67h10.668q.553 0 .944.39t.39.944-.39.943-.943.39H17.335v10.668q0 .552-.39.943t-.944.39-.943-.39-.39-.943V17.336H3.998q-.553 0-.944-.39T2.666 16t.39-.943.943-.392h10.666V4q0-.55.39-.942t.944-.39z"/></svg><svg width="32" height="32" viewBox="0 0 32 32" id="star" x="64"><path d="M12.396 12L16 .906 19.604 12H31.27l-9.437 6.552 3.604 10.896L16 22.542l-9.44 6.854 3.605-10.844L.727 12h11.667zm5.27 2.667L16 9.365l-1.667 5.302H9.156l4.167 2.76-1.635 4.927 4.323-3.125 4.303 3.155-1.635-4.927 4.156-2.792h-5.167z"/></svg><svg width="32" height="32" viewBox="0 0 32 32" id="stop" x="64" y="32"><path d="M8 4h16q1.656 0 2.828 1.172T28 8v16q0 1.656-1.172 2.828T24 28H8q-1.656 0-2.828-1.172T4 24V8q0-1.656 1.172-2.828T8 4zm16 2.667H8q-.552 0-.943.39t-.39.944v16q0 .553.39.944t.943.39h16q.552 0 .943-.39t.39-.943V8q0-.55-.39-.942T24 6.668z"/></svg><svg width="32" height="32" viewBox="0 0 32 32" id="thermometer" y="64"><path d="M15.333 0q1.927 0 3.297 1.37T20 4.667V19.01q1.24 1.032 1.953 2.506t.714 3.15q0 1.49-.578 2.85t-1.564 2.344-2.344 1.563-2.85.578-2.848-.577-2.344-1.563-1.563-2.344T8 24.666q0-1.676.713-3.15t1.953-2.505V4.668q0-1.927 1.37-3.297T15.333 0zm0 2.667q-.833 0-1.417.583t-.583 1.417V20.46q-1.198.572-1.932 1.702t-.733 2.505q0 1.927 1.37 3.297t3.297 1.37 3.297-1.37T20 24.667q0-1.375-.733-2.505t-1.932-1.703V4.666q0-.833-.583-1.417t-1.417-.583z"/></svg><svg width="32" height="32" viewBox="0 0 32 32" id="thumbs-up"><path d="M28.78 14.68c0-.638-.244-1.197-.73-1.678s-1.044-.722-1.67-.722h-6.596c0-.725.3-1.72.9-2.99s.9-2.27.9-3.007c0-1.224-.2-2.13-.6-2.717s-1.2-.88-2.4-.88c-.324.324-.56.855-.71 1.592s-.34 1.52-.573 2.352-.602 1.515-1.114 2.052c-.275.287-.756.856-1.443 1.705-.05.063-.194.25-.43.562s-.435.567-.59.767-.373.465-.648.796c-.275.33-.525.606-.75.825s-.465.44-.722.665c-.256.225-.506.394-.75.506s-.465.168-.665.168H3.23v11.994h6.958c.162 0 .36.02.59.056s.437.078.618.122c.18.044.42.112.712.206s.512.166.656.216l.665.234s.48.172.542.197c2.636.912 4.773 1.368 6.41 1.368h2.267c2.398 0 2.923-1.042 2.923-3.13 0-.324-.46-.674-.522-1.05.376-.2 1.1-.527 1.32-.983s.328-.915.328-1.377c0-.462-.398-.893-.623-1.293.662-.625 1.954-1.368 1.954-2.23 0-.312-.063-.66-.188-1.04s-.956-.678-1.143-.89c.4-.012 1.408-.306 1.676-.88s.403-1.082.403-1.52zm1.97-.02c0 1.112-.306 2.13-.918 3.055.112.412.383.843.383 1.293 0 .962-.452 1.862-.926 2.7.036.26.27.53.27.805 0 1.262-1.02 2.374-1.768 3.336.012 1.736-.018 3.107-1.093 4.113s-2.136 1.15-3.898 1.15h-2.418c-1.2 0-2.383-.14-3.55-.42s-2.522-.69-4.058-1.228c-1.45-.5-2.31-.75-2.586-.75H3.007c-.662 0-1.228-.234-1.696-.703s-.345-.677-.345-1.34L.895 14.68c0-.663.09-.87.56-1.34s.89-.703 1.552-.703h6.92c.45-.3 1.52-1.482 2.783-3.12.725-.936 1.322-1.664 1.934-2.326.3-.31.807-1.06.95-1.816s.335-1.546.572-2.37c.237-.826.196-1.5.733-2.025.486-.463 1.05-.48 1.686-.48 1.05 0 1.993.274 2.83.68s1.33 1.254 1.77 2.116c.436.862.655 1.524.655 2.986 0 1.162-.442 2.718-1.04 3.955h3.583c1.3 0 1.995.118 2.945 1.067s1.424 2.068 1.424 3.355z"/></svg><svg width="32" height="32" viewBox="0 0 32 32" id="type" x="64" y="64"><path d="M26.667 4V1.333h-8V4h2.667v24h-2.667v2.667h8V28H24V4zm-8 3.123c0-.14-.26-.305-.427-.424-.735-.55-1.547-.906-2.448-1.072-.9-.167-1.953-.25-3.164-.25-.877 0-1.78.14-2.7.422-.923.28-1.707.623-2.355 1.028-.75.475-1.36 1.016-1.827 1.62-.468.605-.703 1.24-.703 1.903 0 .636.17 1.208.508 1.72s.87.767 1.59.767c.806 0 1.436-.208 1.89-.628.456-.417.682-.878.682-1.384 0-.475-.07-.993-.205-1.556-.14-.56-.205-.987-.205-1.275.23-.245.63-.48 1.2-.703.568-.224 1.185-.335 1.848-.335.965 0 1.71.197 2.237.593.527.397.933.86 1.22 1.395.26.476.192 1.555.192 1.555v3.18c0 .375-1.81.893-3.793 1.556s-3.188 1.116-3.837 1.36c-.517.204-1.016.474-1.608.812-.59.34-1.04.724-1.4 1.157-.462.52-.794 1.1-1.025 1.75S4 21.696 4 22.518c0 1.584.52 2.867 1.55 3.847 1.028.98 2.346 1.47 3.944 1.47 1.513 0 2.807-.592 3.88-1.14 1.076-.55 2.08-1.364 3.017-2.698h.132c.188 1.332.605 2.094 1.275 2.62l.87.045V7.12zM16.35 22.97c-.534.678-1.19 1.264-1.968 1.764-.78.497-1.68.748-2.703.748-.968 0-1.762-.28-2.39-.847-.627-.563-.94-1.443-.94-2.64 0-.924.21-1.724.63-2.395.415-.673.986-1.253 1.704-1.744.795-.52 1.65-.953 2.573-1.3.92-.348 1.864-.665 3.09-1.024v7.436z"/></svg><svg width="32" height="32" viewBox="0 0 32 32" id="umbrella" x="96"><path d="M16 1.333q2.344 0 4.557.656t4.063 1.864 3.333 2.85 2.47 3.68 1.358 4.282q.22 1.292.22 2.667H17.333v8q0 1.104.78 1.885t1.886.78 1.884-.78.78-1.885q0-.552.392-.943T24 24t.942.39.39.943q0 2.208-1.562 3.77T20 30.668t-3.772-1.563-1.563-3.77v-8H-.002q0-1.376.22-2.668.374-2.24 1.358-4.28t2.47-3.683 3.332-2.85T11.44 1.99t4.557-.657zM16 4q-3.167 0-5.948 1.396T5.412 9.22t-2.475 5.447h26.125q-.615-3.02-2.474-5.448t-4.64-3.824T15.997 4z"/></svg><svg width="32" height="32" viewBox="0 0 32 32" id="unlock" x="96" y="32"><path d="M16 1.333q2.177 0 4.016 1.073t2.91 2.91T24 9.334v1.333q0 .552-.39.943t-.944.39-.943-.39-.39-.944V9.333q0-2.208-1.564-3.77t-3.772-1.564-3.77 1.562-1.564 3.77v5.334h16q1.656 0 2.828 1.172t1.172 2.828v8q0 1.656-1.172 2.828t-2.828 1.172H5.33q-1.655 0-2.827-1.172T1.33 26.666v-8q0-1.656 1.173-2.828t2.828-1.172H8V9.333q0-2.177 1.073-4.016t2.912-2.91 4.016-1.074zm10.667 16H5.334q-.552 0-.943.39t-.39.944v8q0 .552.39.943t.944.39h21.333q.552 0 .943-.39t.39-.943v-8q0-.552-.39-.943t-.943-.39z"/></svg><svg width="32" height="32" viewBox="0 0 32 32" id="upload" x="96" y="64"><path d="M6.667 0h18.667q1.656 0 2.828 1.172T29.334 4v18.667q0 1.656-1.172 2.828t-2.828 1.172H20V24h5.334q.552 0 .943-.39t.39-.944V4q0-.553-.39-.944t-.943-.39H6.667q-.552 0-.943.39T5.334 4v18.666q0 .552.39.943t.943.39H12v2.667H6.667q-1.656 0-2.828-1.172t-1.173-2.828V4q0-1.656 1.172-2.828T6.666 0zM16 9.333q.563 0 .948.385l5.333 5.333q.386.386.386.95 0 .55-.39.942t-.944.39q-.542 0-.948-.384l-3.052-3.063v16.78q0 .553-.39.944t-.944.39-.943-.39-.39-.944v-16.78l-3.053 3.062q-.406.385-.948.385-.552 0-.943-.39t-.39-.944q0-.543.385-.95l5.333-5.332q.385-.385.948-.385z"/></svg><svg width="32" height="32" viewBox="0 0 32 32" id="video" y="96"><path d="M4 6.667h14.667q1.656 0 2.828 1.172t1.172 2.827v2.427L32 8v16l-9.333-5.094v2.427q0 1.656-1.172 2.828t-2.828 1.173H4q-1.656 0-2.828-1.172T0 21.334V10.666Q0 9.01 1.172 7.838T4 6.666zm14.667 2.666H4q-.552 0-.943.39t-.39.944v10.667q0 .552.39.943t.943.39h14.667q.552 0 .943-.39t.39-.943V10.667q0-.552-.39-.943t-.943-.39zM29.333 19.51v-7.02L22.906 16z"/></svg><svg width="32" height="32" viewBox="0 0 32 32" id="volume" x="32" y="96"><path d="M6.667 10.667L13.334 4v24l-6.667-6.667H4q-1.656 0-2.828-1.172T0 17.334v-2.615q0-1.656 1.172-2.854T4 10.666h2.667zm4 10.896V10.386L7.77 13.334H4q-.542 0-.938.41t-.396.975v2.614q0 .552.39.943t.944.39h3.77zm8.708-10.01q.385 0 .724.218t.504.595q.73 1.76.73 3.635 0 1.906-.73 3.615-.156.375-.495.6t-.735.223q-.49 0-.91-.37t-.423-.964q0-.24.104-.52.52-1.23.52-2.584 0-1.344-.52-2.594-.104-.24-.104-.52 0-.595.4-.965t.933-.37zm4.073-3.72q.75 0 1.146.656 1.03 1.718 1.53 3.55.543 1.96.543 3.96 0 1.99-.542 3.968-.51 1.854-1.53 3.552-.386.646-1.147.646-.52 0-.927-.375t-.405-.957q0-.365.198-.688.813-1.354 1.24-2.896Q24 17.685 24 16q0-1.678-.447-3.24-.427-1.543-1.24-2.907-.198-.302-.198-.677 0-.563.41-.953t.923-.39zm3.99-3.656q.72 0 1.104.583 1.698 2.49 2.578 5.354T32 16t-.88 5.884-2.578 5.354q-.375.583-1.104.583-.542 0-.932-.374t-.39-.958q0-.417.228-.75 2.99-4.385 2.99-9.74 0-2.625-.76-5.104t-2.23-4.635q-.228-.334-.228-.75 0-.584.39-.96t.933-.374z"/></svg></svg>